#tb 0: 1/48000
#media_type 0: audio
#codec_id 0: ac3
#sample_rate 0: 48000
#channel_layout 0: 60f
#channel_layout_name 0: 5.1(side)
0,          0,          0,     1536,     1792, 0x50e35426, S=1,        4, 0x00000000
0,       1536,       1536,     1536,     1792, 0xe5575597
0,       3072,       3072,     1536,     1792, 0x86565611
0,       4608,       4608,     1536,     1792, 0xed6f54aa
0,       6144,       6144,     1536,     1792, 0x4cee4aab
0,       7680,       7680,     1536,     1792, 0x8aa33ac7
0,       9216,       9216,     1536,     1792, 0xb665442c
0,      10752,      10752,     1536,     1792, 0x9a4b647d
0,      12288,      12288,     1536,     1792, 0xf40d582d
0,      13824,      13824,     1536,     1792, 0xf22e5d98
0,      15360,      15360,     1536,     1792, 0x2f7745be
0,      16896,      16896,     1536,     1792, 0xa918561a
0,      18432,      18432,     1536,     1792, 0x59cc56fb
0,      19968,      19968,     1536,     1792, 0xaefe5dca
0,      21504,      21504,     1536,     1792, 0x80ba657d
0,      23040,      23040,     1536,     1792, 0x09137032
0,      24576,      24576,     1536,     1792, 0xf51b5d34
0,      26112,      26112,     1536,     1792, 0x1d695fb1
0,      27648,      27648,     1536,     1792, 0xf6f56509
0,      29184,      29184,     1536,     1792, 0xd1f658d5
0,      30720,      30720,     1536,     1792, 0xb8614f64
0,      32256,      32256,     1536,     1792, 0x8dd55743
0,      33792,      33792,     1536,     1792, 0xcb1f50df
0,      35328,      35328,     1536,     1440, 0xa129aa95
